<svg width="61" height="61" viewBox="0 0 61 61" fill="none" xmlns="http://www.w3.org/2000/svg">
<g clip-path="url(#clip0_51_11316)">
<path d="M58.8107 37.3799L55.9419 37.3799L55.9419 45.9486L58.8107 45.9486L58.8107 37.3799Z" fill="#EDFFFF"/>
<path d="M55.9423 0.23584L53.0923 0.23584L53.0923 3.08584L50.2235 3.08584L50.2235 5.95459L53.0923 5.95459L53.0923 8.80459L55.9423 8.80459L55.9423 5.95459L58.811 5.95459L58.811 3.08584L55.9423 3.08584L55.9423 0.23584Z" fill="#EDFFFF"/>
<path d="M55.9409 20.2422L53.091 20.2422L53.091 37.3797L55.9409 37.3797L55.9409 20.2422Z" fill="#EDFFFF"/>
<path d="M55.9423 45.9482L50.2235 45.9482L50.2235 48.7982L55.9423 48.7982L55.9423 45.9482Z" fill="#EDFFFF"/>
<path d="M53.0923 14.5234L50.2235 14.5234L50.2235 20.2422L53.0923 20.2422L53.0923 14.5234Z" fill="#EDFFFF"/>
<path d="M50.2226 48.7983L47.3726 48.7983L47.3726 51.6671L50.2226 51.6671L50.2226 48.7983Z" fill="#EDFFFF"/>
<path d="M50.2226 40.23L47.3726 40.23L47.3726 45.9487L50.2226 45.9487L50.2226 40.23Z" fill="#EDFFFF"/>
<path d="M50.2226 11.6733L47.3726 11.6733L47.3726 14.5233L50.2226 14.5233L50.2226 11.6733Z" fill="#EDFFFF"/>
<path d="M47.3734 51.6675L44.5234 51.6675L44.5234 54.5175L47.3734 54.5175L47.3734 51.6675Z" fill="#EDFFFF"/>
<path d="M47.3729 20.2422L44.5229 20.2422L44.5229 23.0922L41.6542 23.0922L41.6542 25.9422L44.5229 25.9422L44.5229 28.8109L47.3729 28.8109L47.3729 25.9422L50.2229 25.9422L50.2229 23.0922L47.3729 23.0922L47.3729 20.2422Z" fill="#EDFFFF"/>
<path d="M47.3729 8.8042L41.6542 8.8042L41.6542 11.6729L47.3729 11.6729L47.3729 8.8042Z" fill="#EDFFFF"/>
<path d="M44.522 54.5176L38.8032 54.5176L38.8032 57.3863L44.522 57.3863L44.522 54.5176Z" fill="#EDFFFF"/>
<path d="M33.0848 28.8115L33.0848 37.3803L41.6536 37.3803L41.6536 28.8115L33.0848 28.8115ZM38.8036 34.5303L35.9348 34.5303L35.9348 31.6615L38.8036 31.6615L38.8036 34.5303Z" fill="#EDFFFF"/>
<path d="M38.8034 57.3857L18.7971 57.3857L18.7971 60.2357L38.8034 60.2357L38.8034 57.3857Z" fill="#EDFFFF"/>
<path d="M33.0857 40.23L30.2357 40.23L30.2357 45.9487L33.0857 45.9487L33.0857 40.23Z" fill="#EDFFFF"/>
<path d="M41.654 5.9541L27.3665 5.9541L27.3665 8.8041L41.654 8.8041L41.654 5.9541Z" fill="#EDFFFF"/>
<path d="M27.3673 28.8109L30.2361 28.8109L30.2361 25.9422L33.0861 25.9422L33.0861 23.0922L30.2361 23.0922L30.2361 20.2422L27.3673 20.2422L27.3673 23.0922L24.5173 23.0922L24.5173 25.9422L27.3673 25.9422L27.3673 28.8109Z" fill="#EDFFFF"/>
<path d="M30.2361 45.9482L24.5173 45.9482L24.5173 48.7982L30.2361 48.7982L30.2361 45.9482Z" fill="#EDFFFF"/>
<path d="M27.3664 8.8042L21.6664 8.8042L21.6664 11.6729L27.3664 11.6729L27.3664 8.8042Z" fill="#EDFFFF"/>
<path d="M24.5164 40.23L21.6664 40.23L21.6664 45.9487L24.5164 45.9487L24.5164 40.23Z" fill="#EDFFFF"/>
<path d="M21.6659 11.6733L18.7971 11.6733L18.7971 14.5233L21.6659 14.5233L21.6659 11.6733Z" fill="#EDFFFF"/>
<path d="M21.6659 0.23584L18.7971 0.23584L18.7971 3.08584L21.6659 3.08584L21.6659 0.23584Z" fill="#EDFFFF"/>
<path d="M18.7975 54.5176L13.0787 54.5176L13.0787 57.3863L18.7975 57.3863L18.7975 54.5176Z" fill="#EDFFFF"/>
<path d="M18.798 14.5234L15.948 14.5234L15.948 20.2422L18.798 20.2422L18.798 14.5234Z" fill="#EDFFFF"/>
<path d="M15.9475 20.2422L13.0787 20.2422L13.0787 37.3797L15.9475 37.3797L15.9475 20.2422Z" fill="#EDFFFF"/>
<path d="M13.0796 51.6675L10.2296 51.6675L10.2296 54.5175L13.0796 54.5175L13.0796 51.6675Z" fill="#EDFFFF"/>
<path d="M13.0796 8.8042L10.2296 8.8042L10.2296 17.3729L13.0796 17.3729L13.0796 8.8042Z" fill="#EDFFFF"/>
<path d="M10.2287 48.7983L7.37867 48.7983L7.37867 51.6671L10.2287 51.6671L10.2287 48.7983Z" fill="#EDFFFF"/>
<path d="M13.0787 37.3799L7.37867 37.3799L7.37867 40.2299L13.0787 40.2299L13.0787 37.3799Z" fill="#EDFFFF"/>
<path d="M10.2282 5.9541L4.50941 5.9541L4.50941 8.8041L10.2282 8.8041L10.2282 5.9541Z" fill="#EDFFFF"/>
<path d="M7.37816 45.9482L4.50941 45.9482L4.50941 48.7982L7.37816 48.7982L7.37816 45.9482Z" fill="#EDFFFF"/>
<path d="M7.37816 34.5298L4.50941 34.5298L4.50941 37.3798L7.37816 37.3798L7.37816 34.5298Z" fill="#EDFFFF"/>
<path d="M10.2273 17.3735L1.65858 17.3735L1.65858 20.2423L10.2273 20.2423L10.2273 17.3735Z" fill="#EDFFFF"/>
<path d="M7.37816 11.6733L4.50941 11.6733L4.50941 14.5233L7.37816 14.5233L7.37816 11.6733Z" fill="#EDFFFF"/>
<path d="M4.50858 37.3799L1.65858 37.3799L1.65858 45.9486L4.50858 45.9486L4.50858 37.3799Z" fill="#EDFFFF"/>
<path d="M4.50858 25.9419L1.65858 25.9419L1.65858 28.8106L4.50858 28.8106L4.50858 25.9419Z" fill="#EDFFFF"/>
<path d="M4.50858 8.8042L1.65858 8.8042L1.65858 11.6729L4.50858 11.6729L4.50858 8.8042Z" fill="#EDFFFF"/>
</g>
<defs>
<clipPath id="clip0_51_11316">
<rect width="60" height="60" fill="white" transform="translate(0.23597 0.23584)"/>
</clipPath>
</defs>
</svg>
