<svg width="32" height="32" viewBox="0 0 32 32" fill="none" xmlns="http://www.w3.org/2000/svg">
<path d="M17.3708 2.66814C18.3438 2.66441 19.3167 2.67419 20.2895 2.69748L20.5481 2.70681C20.8468 2.71748 21.1415 2.73081 21.4975 2.74681C22.9161 2.81348 23.8841 3.03748 24.7335 3.36681C25.6135 3.70548 26.3548 4.16414 27.0961 4.90548C27.774 5.57162 28.2986 6.37741 28.6335 7.26681C28.9628 8.11614 29.1868 9.08548 29.2535 10.5041C29.2695 10.8588 29.2828 11.1548 29.2935 11.4535L29.3015 11.7121C29.3251 12.6844 29.3354 13.6569 29.3321 14.6295L29.3335 15.6241V17.3708C29.3367 18.3438 29.3265 19.3168 29.3028 20.2895L29.2948 20.5481C29.2841 20.8468 29.2708 21.1415 29.2548 21.4975C29.1881 22.9161 28.9615 23.8841 28.6335 24.7335C28.2997 25.6238 27.7749 26.4303 27.0961 27.0961C26.4294 27.7739 25.6232 28.2985 24.7335 28.6335C23.8841 28.9628 22.9161 29.1868 21.4975 29.2535C21.1415 29.2695 20.8468 29.2828 20.5481 29.2935L20.2895 29.3015C19.3168 29.3252 18.3438 29.3354 17.3708 29.3321L16.3761 29.3335H14.6308C13.6578 29.3368 12.6848 29.3265 11.7121 29.3028L11.4535 29.2948C11.1369 29.2833 10.8205 29.27 10.5041 29.2548C9.08545 29.1881 8.11745 28.9615 7.26678 28.6335C6.37703 28.2993 5.5711 27.7746 4.90545 27.0961C4.22685 26.4299 3.70175 25.6236 3.36679 24.7335C3.03745 23.8841 2.81345 22.9161 2.74678 21.4975C2.73194 21.1811 2.7186 20.8647 2.70678 20.5481L2.70012 20.2895C2.67554 19.3168 2.66442 18.3438 2.66678 17.3708V14.6295C2.66306 13.6569 2.67284 12.6844 2.69612 11.7121L2.70545 11.4535C2.71612 11.1548 2.72945 10.8588 2.74545 10.5041C2.81212 9.08414 3.03612 8.11748 3.36545 7.26681C3.70062 6.37697 4.22674 5.5714 4.90679 4.90681C5.57198 4.22781 6.3774 3.70224 7.26678 3.36681C8.11745 3.03748 9.08412 2.81348 10.5041 2.74681L11.4535 2.70681L11.7121 2.70014C12.6844 2.67558 13.6569 2.66446 14.6295 2.66681L17.3708 2.66814ZM16.0001 9.33481C15.1168 9.32232 14.2398 9.48551 13.4201 9.8149C12.6004 10.1443 11.8543 10.6333 11.2252 11.2536C10.5962 11.8738 10.0967 12.6129 9.7557 13.4278C9.41475 14.2428 9.23917 15.1174 9.23917 16.0008C9.23917 16.8842 9.41475 17.7588 9.7557 18.5738C10.0967 19.3888 10.5962 20.1278 11.2252 20.7481C11.8543 21.3683 12.6004 21.8573 13.4201 22.1867C14.2398 22.5161 15.1168 22.6793 16.0001 22.6668C17.7682 22.6668 19.4639 21.9644 20.7142 20.7142C21.9644 19.4639 22.6668 17.7683 22.6668 16.0001C22.6668 14.232 21.9644 12.5363 20.7142 11.2861C19.4639 10.0359 17.7682 9.33481 16.0001 9.33481ZM16.0001 12.0015C16.5315 11.9917 17.0594 12.0879 17.5532 12.2844C18.0469 12.481 18.4966 12.7739 18.8758 13.1462C19.2551 13.5185 19.5564 13.9626 19.762 14.4526C19.9677 14.9426 20.0737 15.4687 20.0738 16.0001C20.0739 16.5316 19.9681 17.0577 19.7626 17.5478C19.557 18.0378 19.2559 18.4821 18.8768 18.8545C18.4976 19.2269 18.0481 19.52 17.5544 19.7167C17.0607 19.9134 16.5328 20.0098 16.0015 20.0001C14.9406 20.0001 13.9232 19.5787 13.173 18.8286C12.4229 18.0784 12.0015 17.061 12.0015 16.0001C12.0015 14.9393 12.4229 13.9219 13.173 13.1717C13.9232 12.4216 14.9406 12.0001 16.0015 12.0001L16.0001 12.0015ZM23.0001 7.33481C22.57 7.35203 22.1632 7.53501 21.8649 7.84544C21.5667 8.15587 21.4001 8.56966 21.4001 9.00014C21.4001 9.43063 21.5667 9.84442 21.8649 10.1548C22.1632 10.4653 22.57 10.6483 23.0001 10.6655C23.4421 10.6655 23.8661 10.4899 24.1786 10.1773C24.4912 9.86476 24.6668 9.44084 24.6668 8.99881C24.6668 8.55678 24.4912 8.13286 24.1786 7.8203C23.8661 7.50774 23.4421 7.33214 23.0001 7.33214V7.33481Z" fill="#FFF7F7"/>
</svg>
