<svg width="53" height="52" viewBox="0 0 53 52" fill="none" xmlns="http://www.w3.org/2000/svg">
<path d="M51.2279 13.6176H48.7416V16.0876H51.2279V13.6176Z" fill="#0C2EB2"/>
<path d="M48.7408 16.0876H46.2708V18.5739H48.7408V16.0876Z" fill="#0C2EB2"/>
<path d="M48.7408 11.1476H46.2708V13.6176H48.7408V11.1476Z" fill="#0C2EB2"/>
<path d="M46.2716 13.6176H43.8016V16.0876H46.2716V13.6176Z" fill="#0C2EB2"/>
<path d="M43.8019 45.8088V43.3226H46.2719V40.8526H43.8019V38.3826H41.3156V40.8526H38.8456V43.3226H41.3156V45.8088H43.8019Z" fill="#0C2EB2"/>
<path d="M43.8011 21.0437H41.3149V26H43.8011V21.0437Z" fill="#0C2EB2"/>
<path d="M41.3156 26.0001H38.8456V28.4701H41.3156V26.0001Z" fill="#0C2EB2"/>
<path d="M41.3156 6.19141H38.8456V8.66141H41.3156V6.19141Z" fill="#0C2EB2"/>
<path d="M38.8452 28.4701H36.3589V30.9563H38.8452V28.4701Z" fill="#0C2EB2"/>
<path d="M38.8452 8.66125H36.3589V11.1475H38.8452V8.66125Z" fill="#0C2EB2"/>
<path d="M36.3581 30.9564H33.8881V33.4264H36.3581V30.9564Z" fill="#0C2EB2"/>
<path d="M36.3581 11.1476H33.8881V13.6176H36.3581V11.1476Z" fill="#0C2EB2"/>
<path d="M33.8889 33.4265H31.4189V35.8965H33.8889V33.4265Z" fill="#0C2EB2"/>
<path d="M33.8889 13.6176H31.4189V16.0876H33.8889V13.6176Z" fill="#0C2EB2"/>
<path d="M31.4184 48.2788H28.9322V50.7651H31.4184V48.2788Z" fill="#0C2EB2"/>
<path d="M31.4184 35.8962H28.9322V38.3825H31.4184V35.8962Z" fill="#0C2EB2"/>
<path d="M28.933 16.0876V18.5739H26.463V21.0439H41.3155V18.5739H31.4192V16.0876H28.933Z" fill="#0C2EB2"/>
<path d="M28.933 38.3826H26.463V40.8526H28.933V38.3826Z" fill="#0C2EB2"/>
<path d="M41.3146 3.70511V6.19136H43.8009V1.23511H23.9921V3.70511H41.3146Z" fill="#0C2EB2"/>
<path d="M26.4621 40.8527H23.9921V43.3227H26.4621V40.8527Z" fill="#0C2EB2"/>
<path d="M23.9933 43.3226H21.507V45.8089H23.9933V43.3226Z" fill="#0C2EB2"/>
<path d="M23.9933 3.70508H21.507V6.19133H23.9933V3.70508Z" fill="#0C2EB2"/>
<path d="M21.5062 45.809H19.0362V48.279H21.5062V45.809Z" fill="#0C2EB2"/>
<path d="M21.506 26.0001H6.6535V28.4701H19.036V33.4264H21.506V26.0001Z" fill="#0C2EB2"/>
<path d="M21.5062 6.19141H19.0362V8.66141H21.5062V6.19141Z" fill="#0C2EB2"/>
<path d="M19.0358 48.2788H16.5495V50.7651H19.0358V48.2788Z" fill="#0C2EB2"/>
<path d="M19.0358 33.4265H16.5495V40.8528H19.0358V33.4265Z" fill="#0C2EB2"/>
<path d="M19.0358 8.66125H16.5495V11.1475H19.0358V8.66125Z" fill="#0C2EB2"/>
<path d="M16.5503 40.8527H14.0803V48.2789H16.5503V40.8527Z" fill="#0C2EB2"/>
<path d="M16.5503 11.1476H14.0803V13.6176H16.5503V11.1476Z" fill="#0C2EB2"/>
<path d="M14.0794 13.6176H11.6094V16.0876H14.0794V13.6176Z" fill="#0C2EB2"/>
<path d="M11.6106 16.0876H9.12433V18.5739H11.6106V16.0876Z" fill="#0C2EB2"/>
<path d="M9.1235 35.8962H6.6535V38.3825H9.1235V35.8962Z" fill="#0C2EB2"/>
<path d="M9.1235 18.574H6.6535V21.044H9.1235V18.574Z" fill="#0C2EB2"/>
<path d="M6.65427 1.23511V3.70511H4.18427V6.19136H6.65427V8.66136H9.12427V6.19136H11.6105V3.70511H9.12427V1.23511H6.65427Z" fill="#0C2EB2"/>
<path d="M6.65427 38.3826H4.18427V40.8526H6.65427V38.3826Z" fill="#0C2EB2"/>
<path d="M6.65427 33.4265H4.18427V35.8965H6.65427V33.4265Z" fill="#0C2EB2"/>
<path d="M6.65427 21.0437H4.18427V26H6.65427V21.0437Z" fill="#0C2EB2"/>
<path d="M4.18382 35.8962H1.69757V38.3825H4.18382V35.8962Z" fill="#0C2EB2"/>
</svg>
