<svg width="49" height="50" viewBox="0 0 49 50" fill="none" xmlns="http://www.w3.org/2000/svg">
<g clip-path="url(#clip0_117_520)">
<path d="M48.4853 20.8374C48.4077 20.6635 46.5377 16.5672 42.938 15.5507C42.2094 15.345 41.4759 15.2859 40.7675 15.3203C41.1669 14.7328 41.4979 14.0738 41.7032 13.3438V13.3434C42.7174 9.73671 40.2061 6.0002 40.099 5.84275L39.6261 5.15088L38.8627 5.49382C38.6892 5.57199 34.6005 7.44529 33.5864 11.0524C32.6379 14.4265 34.7737 17.9132 35.1414 18.4783C35.4303 19.0871 37.2839 22.7331 40.6514 23.6838C41.2538 23.8536 41.86 23.9246 42.4524 23.9246C45.3992 23.9246 48.0064 22.1654 48.1371 22.076L48.828 21.6026L48.4853 20.8374Z" fill="#FFF7F7"/>
<path d="M37.949 26.5386C37.949 37.0648 29.4324 45.5981 18.9267 45.5981C8.42139 45.5981 -0.0952148 37.0648 -0.0952148 26.5386C-0.0952148 16.0127 8.42139 7.47949 18.9267 7.47949C29.4324 7.47949 37.949 16.0127 37.949 26.5386Z" fill="black"/>
<path d="M37.9491 26.5386C37.9491 37.0648 29.4325 45.5981 18.9268 45.5981C18.9268 35.9096 18.9268 13.5691 18.9268 7.47949C29.4325 7.47949 37.9491 16.0127 37.9491 26.5386Z" fill="#FFF7F7"/>
<path d="M5.88379 26.3864C5.88379 23.1881 8.47158 20.5952 11.6637 20.5952H25.8859C29.078 20.5952 31.6658 23.1881 31.6658 26.3864C31.6658 29.5847 29.078 32.1772 25.8859 32.1772H11.6637C8.47158 32.1772 5.88379 29.5847 5.88379 26.3864Z" fill="#FFE4C2"/>
<path d="M18.9268 20.5952H25.8861C29.0782 20.5952 31.666 23.1881 31.666 26.3864C31.666 29.5847 29.0782 32.1772 25.8861 32.1772H18.9268V20.5952Z" fill="#F2D1A5"/>
<path d="M10.7637 26.2247L12.197 23.7373L17.0575 26.5489L15.6242 29.0363L10.7637 26.2247Z" fill="#383838"/>
<path d="M20.7939 26.5484L25.6545 23.7368L27.0878 26.2242L22.2273 29.0358L20.7939 26.5484Z" fill="#2C2C2C"/>
</g>
<defs>
<clipPath id="clip0_117_520">
<rect width="48.9235" height="48.9235" fill="white" transform="translate(0 0.891113)"/>
</clipPath>
</defs>
</svg>
