<svg width="53" height="53" viewBox="0 0 53 53" fill="none" xmlns="http://www.w3.org/2000/svg">
<g clip-path="url(#clip0_51_11196)">
<path d="M27.6978 32.7136H30.1678V35.1836H35.1241V37.6699H37.5941V40.1399H35.1241V42.6099H30.1678V45.0961H27.6978V47.5661H30.1678V50.0524H35.1241V52.5224H42.5503V50.0524H47.5066V47.5661H49.9766V42.6099H52.4628V35.1836H49.9766V30.2436H47.5066V27.7574H42.5503V25.2874H35.1241V27.7574H30.1678V30.2436H27.6978V32.7136ZM40.0803 32.7136H42.5503V35.1836H40.0803V32.7136Z" fill="#0C2EB2"/>
<path d="M49.9757 10.4186H47.5057V12.9048H49.9757V10.4186Z" fill="#0C2EB2"/>
<path d="M42.5505 17.8612H40.0805V20.3312H42.5505V17.8612Z" fill="#0C2EB2"/>
<path d="M42.5505 10.4186H40.0805V12.9048H42.5505V10.4186Z" fill="#0C2EB2"/>
<path d="M42.5505 2.99243H40.0805V5.47868H42.5505V2.99243Z" fill="#0C2EB2"/>
<path d="M35.1241 10.4186H32.6379V12.9048H35.1241V10.4186Z" fill="#0C2EB2"/>
<path d="M27.6974 37.6698H25.2111V40.1398H27.6974V37.6698Z" fill="#0C2EB2"/>
<path d="M27.6974 10.4186H25.2111V22.8011H27.6974V10.4186Z" fill="#0C2EB2"/>
<path d="M25.2119 22.801H22.7419V25.2873H25.2119V22.801Z" fill="#0C2EB2"/>
<path d="M25.2119 5.47864H22.7419V10.4186H25.2119V5.47864Z" fill="#0C2EB2"/>
<path d="M22.7411 20.3311H20.2711V22.8011H22.7411V20.3311Z" fill="#0C2EB2"/>
<path d="M22.7411 2.99243H20.2711V5.47868H22.7411V2.99243Z" fill="#0C2EB2"/>
<path d="M20.2706 37.6698H17.7844V40.1398H20.2706V37.6698Z" fill="#0C2EB2"/>
<path d="M20.2706 22.801H17.7844V25.2873H20.2706V22.801Z" fill="#0C2EB2"/>
<path d="M20.2706 10.4186H17.7844V12.9048H20.2706V10.4186Z" fill="#0C2EB2"/>
<path d="M17.7851 20.3311H15.3151V22.8011H17.7851V20.3311Z" fill="#0C2EB2"/>
<path d="M15.3147 22.801H12.8284V25.2873H15.3147V22.801Z" fill="#0C2EB2"/>
<path d="M15.3147 10.4186H12.8284V12.9048H15.3147V10.4186Z" fill="#0C2EB2"/>
<path d="M12.8292 45.0962H10.3592V47.5662H12.8292V45.0962Z" fill="#0C2EB2"/>
<path d="M12.8292 37.6698H10.3592V40.1398H12.8292V37.6698Z" fill="#0C2EB2"/>
<path d="M12.8292 30.2437H10.3592V32.7136H12.8292V30.2437Z" fill="#0C2EB2"/>
<path d="M12.8292 20.3311H10.3592V22.8011H12.8292V20.3311Z" fill="#0C2EB2"/>
<path d="M20.2709 0.522339H7.88837V2.99234H20.2709V0.522339Z" fill="#0C2EB2"/>
<path d="M10.3584 22.801H7.88837V25.2873H10.3584V22.801Z" fill="#0C2EB2"/>
<path d="M7.88792 20.3311H5.40167V22.8011H7.88792V20.3311Z" fill="#0C2EB2"/>
<path d="M7.88792 2.99243H5.40167V5.47868H7.88792V2.99243Z" fill="#0C2EB2"/>
<path d="M5.40243 37.6698H2.93243V40.1398H5.40243V37.6698Z" fill="#0C2EB2"/>
<path d="M5.40243 22.801H2.93243V25.2873H5.40243V22.801Z" fill="#0C2EB2"/>
<path d="M5.40243 5.47864H2.93243V10.4186H5.40243V5.47864Z" fill="#0C2EB2"/>
<path d="M2.93271 10.4186H0.462708V22.8011H2.93271V10.4186Z" fill="#0C2EB2"/>
</g>
<defs>
<clipPath id="clip0_51_11196">
<rect width="52" height="52" fill="white" transform="translate(0.462708 0.522339)"/>
</clipPath>
</defs>
</svg>
