<svg width="53" height="53" viewBox="0 0 53 53" fill="none" xmlns="http://www.w3.org/2000/svg">
<g clip-path="url(#clip0_51_11233)">
<path d="M33.8812 14.8974H36.3674V17.3837H43.7937V14.8974H46.2637V12.4274H43.7937V7.47117H41.3074V5.00117H43.7937V7.47117H46.2637V12.4274H48.7499V5.00117H46.2637V2.51492H43.7937V0.0449219H36.3674V2.51492H33.8812V5.00117H31.4112V12.4274H33.8812V14.8974Z" fill="#0C2EB2"/>
<path d="M31.4112 47.0888H33.8812V49.575H36.3674V52.045H43.7937V49.575H46.2637V47.0888H43.7937V42.1325H41.3074V39.6625H43.7937V42.1325H46.2637V47.0888H48.7499V39.6625H46.2637V37.1926H43.7937V34.7063H36.3674V37.1926H33.8812V39.6625H31.4112V47.0888Z" fill="#0C2EB2"/>
<path d="M31.412 37.1926H28.942V39.6626H31.412V37.1926Z" fill="#0C2EB2"/>
<path d="M31.412 12.4277H28.942V14.8977H31.412V12.4277Z" fill="#0C2EB2"/>
<path d="M28.9415 34.7063H26.4553V37.1925H28.9415V34.7063Z" fill="#0C2EB2"/>
<path d="M28.9415 14.8972H26.4553V17.3835H28.9415V14.8972Z" fill="#0C2EB2"/>
<path d="M26.456 32.2363H23.986V34.7063H26.456V32.2363Z" fill="#0C2EB2"/>
<path d="M26.456 17.3835H23.986V19.8535H26.456V17.3835Z" fill="#0C2EB2"/>
<path d="M23.9856 29.7661H21.4993V32.2361H23.9856V29.7661Z" fill="#0C2EB2"/>
<path d="M23.9856 19.8535H21.4993V22.3235H23.9856V19.8535Z" fill="#0C2EB2"/>
<path d="M9.13282 17.3835V19.8535H6.64657V22.3235H4.17657V29.766H6.64657V32.236H9.13282V34.706H16.5591V32.236H19.0291V29.766H21.4991V22.3235H19.0291V19.8535H16.5591V17.3835H9.13282Z" fill="#0C2EB2"/>
</g>
<defs>
<clipPath id="clip0_51_11233">
<rect width="52" height="52" fill="white" transform="translate(0.462708 0.0449219)"/>
</clipPath>
</defs>
</svg>
