<svg width="32" height="32" viewBox="0 0 32 32" fill="none" xmlns="http://www.w3.org/2000/svg">
<path d="M22.1329 7.76C21.2215 6.7195 20.7192 5.38324 20.7196 4H16.5996V20.5333C16.5678 21.428 16.1901 22.2755 15.546 22.8973C14.9018 23.519 14.0415 23.8665 13.1463 23.8667C11.2529 23.8667 9.6796 22.32 9.6796 20.4C9.6796 18.1067 11.8929 16.3867 14.1729 17.0933V12.88C9.57293 12.2667 5.54626 15.84 5.54626 20.4C5.54626 24.84 9.22627 28 13.1329 28C17.3196 28 20.7196 24.6 20.7196 20.4V12.0133C22.3903 13.2131 24.3961 13.8569 26.4529 13.8533V9.73333C26.4529 9.73333 23.9463 9.85333 22.1329 7.76Z" fill="#FFF7F7"/>
</svg>
